<svg width="136" height="28" viewBox="0 0 136 28" fill="none" xmlns="http://www.w3.org/2000/svg">
<path d="M12.4241 3.6189C12.7943 2.47982 14.4057 2.47982 14.7759 3.6189L16.3758 8.54306C16.5413 9.05247 17.016 9.39737 17.5517 9.39737H22.7292C23.9269 9.39737 24.4249 10.93 23.4559 11.634L19.2672 14.6773C18.8339 14.9921 18.6526 15.5502 18.8181 16.0596L20.418 20.9837C20.7881 22.1228 19.4844 23.07 18.5155 22.366L14.3267 19.3227C13.8934 19.0079 13.3066 19.0079 12.8733 19.3227L8.68454 22.366C7.71558 23.07 6.41186 22.1228 6.78197 20.9837L8.38193 16.0596C8.54745 15.5502 8.36613 14.9921 7.9328 14.6773L3.74405 11.634C2.7751 10.93 3.27307 9.39737 4.47077 9.39737H9.64834C10.184 9.39737 10.6587 9.05247 10.8242 8.54306L12.4241 3.6189Z" fill="#FFB800"/>
<path d="M39.6241 3.61888C39.9942 2.4798 41.6057 2.4798 41.9758 3.61888L43.5758 8.54304C43.7413 9.05245 44.216 9.39735 44.7516 9.39735H49.9292C51.1269 9.39735 51.6249 10.93 50.6559 11.6339L46.4672 14.6772C46.0338 14.9921 45.8525 15.5501 46.018 16.0595L47.618 20.9837C47.9881 22.1228 46.6844 23.07 45.7154 22.366L41.5267 19.3227C41.0933 19.0079 40.5066 19.0079 40.0732 19.3227L35.8845 22.366C34.9155 23.07 33.6118 22.1228 33.9819 20.9837L35.5819 16.0595C35.7474 15.5501 35.5661 14.9921 35.1327 14.6772L30.944 11.6339C29.975 10.93 30.473 9.39735 31.6707 9.39735H36.8483C37.3839 9.39735 37.8586 9.05245 38.0241 8.54304L39.6241 3.61888Z" fill="#FFB800"/>
<path d="M66.8242 3.61888C67.1943 2.4798 68.8058 2.4798 69.1759 3.61888L70.7758 8.54304C70.9414 9.05245 71.4161 9.39735 71.9517 9.39735H77.1293C78.327 9.39735 78.8249 10.93 77.856 11.6339L73.6672 14.6772C73.2339 14.9921 73.0526 15.5501 73.2181 16.0595L74.8181 20.9837C75.1882 22.1228 73.8844 23.07 72.9155 22.366L68.7267 19.3227C68.2934 19.0079 67.7066 19.0079 67.2733 19.3227L63.0846 22.366C62.1156 23.07 60.8119 22.1228 61.182 20.9837L62.782 16.0595C62.9475 15.5501 62.7661 14.9921 62.3328 14.6772L58.1441 11.6339C57.1751 10.93 57.6731 9.39735 58.8708 9.39735H64.0484C64.584 9.39735 65.0587 9.05245 65.2242 8.54304L66.8242 3.61888Z" fill="#FFB800"/>
<path d="M94.0241 3.61888C94.3942 2.4798 96.0057 2.4798 96.3758 3.61888L97.9758 8.54304C98.1413 9.05245 98.616 9.39735 99.1516 9.39735H104.329C105.527 9.39735 106.025 10.93 105.056 11.6339L100.867 14.6772C100.434 14.9921 100.253 15.5501 100.418 16.0595L102.018 20.9837C102.388 22.1228 101.084 23.07 100.115 22.366L95.9267 19.3227C95.4934 19.0079 94.9066 19.0079 94.4733 19.3227L90.2845 22.366C89.3156 23.07 88.0118 22.1228 88.3819 20.9837L89.9819 16.0595C90.1474 15.5501 89.9661 14.9921 89.5328 14.6772L85.344 11.6339C84.3751 10.93 84.873 9.39735 86.0707 9.39735H91.2483C91.7839 9.39735 92.2586 9.05245 92.4242 8.54304L94.0241 3.61888Z" fill="#FFB800"/>
<path d="M121.224 3.61888C121.594 2.4798 123.206 2.4798 123.576 3.61888L125.176 8.54304C125.341 9.05245 125.816 9.39735 126.352 9.39735H131.529C132.727 9.39735 133.225 10.93 132.256 11.6339L128.067 14.6772C127.634 14.9921 127.453 15.5501 127.618 16.0595L129.218 20.9837C129.588 22.1228 128.284 23.07 127.316 22.366L123.127 19.3227C122.693 19.0079 122.107 19.0079 121.673 19.3227L117.485 22.366C116.516 23.07 115.212 22.1228 115.582 20.9837L117.182 16.0595C117.347 15.5501 117.166 14.9921 116.733 14.6772L112.544 11.6339C111.575 10.93 112.073 9.39735 113.271 9.39735H118.448C118.984 9.39735 119.459 9.05245 119.624 8.54304L121.224 3.61888Z" fill="#FFB800"/>
</svg>
